<svg id="visual" viewBox="0 0 960 540" width="960" height="540" xmlns="http://www.w3.org/2000/svg" xmlns:xlink="http://www.w3.org/1999/xlink" version="1.1"><path d="M0 44L16 48.5C32 53 64 62 96 62C128 62 160 53 192 52.2C224 51.3 256 58.7 288 65C320 71.3 352 76.7 384 73C416 69.3 448 56.7 480 54C512 51.3 544 58.7 576 64.2C608 69.7 640 73.3 672 75.2C704 77 736 77 768 77.8C800 78.7 832 80.3 864 80.3C896 80.3 928 78.7 944 77.8L960 77L960 0L944 0C928 0 896 0 864 0C832 0 800 0 768 0C736 0 704 0 672 0C640 0 608 0 576 0C544 0 512 0 480 0C448 0 416 0 384 0C352 0 320 0 288 0C256 0 224 0 192 0C160 0 128 0 96 0C64 0 32 0 16 0L0 0Z" fill="#60a69f"></path><path d="M0 98L16 100.7C32 103.3 64 108.7 96 106.8C128 105 160 96 192 95.2C224 94.3 256 101.7 288 107.2C320 112.7 352 116.3 384 114.5C416 112.7 448 105.3 480 100.8C512 96.3 544 94.7 576 96.5C608 98.3 640 103.7 672 107.2C704 110.7 736 112.3 768 113.2C800 114 832 114 864 115C896 116 928 118 944 119L960 120L960 75L944 75.8C928 76.7 896 78.3 864 78.3C832 78.3 800 76.7 768 75.8C736 75 704 75 672 73.2C640 71.3 608 67.7 576 62.2C544 56.7 512 49.3 480 52C448 54.7 416 67.3 384 71C352 74.7 320 69.3 288 63C256 56.7 224 49.3 192 50.2C160 51 128 60 96 60C64 60 32 51 16 46.5L0 42Z" fill="#64b0a9"></path><path d="M0 120L16 128C32 136 64 152 96 152C128 152 160 136 192 130.7C224 125.3 256 130.7 288 135.2C320 139.7 352 143.3 384 146C416 148.7 448 150.3 480 148.5C512 146.7 544 141.3 576 141.3C608 141.3 640 146.7 672 152C704 157.3 736 162.7 768 160.8C800 159 832 150 864 150C896 150 928 159 944 163.5L960 168L960 118L944 117C928 116 896 114 864 113C832 112 800 112 768 111.2C736 110.3 704 108.7 672 105.2C640 101.7 608 96.3 576 94.5C544 92.7 512 94.3 480 98.8C448 103.3 416 110.7 384 112.5C352 114.3 320 110.7 288 105.2C256 99.7 224 92.3 192 93.2C160 94 128 103 96 104.8C64 106.7 32 101.3 16 98.7L0 96Z" fill="#68bbb3"></path><path d="M0 212L16 222.7C32 233.3 64 254.7 96 252.8C128 251 160 226 192 227C224 228 256 255 288 274.8C320 294.7 352 307.3 384 301C416 294.7 448 269.3 480 256.7C512 244 544 244 576 245.8C608 247.7 640 251.3 672 264.8C704 278.3 736 301.7 768 310.7C800 319.7 832 314.3 864 319.7C896 325 928 341 944 349L960 357L960 166L944 161.5C928 157 896 148 864 148C832 148 800 157 768 158.8C736 160.7 704 155.3 672 150C640 144.7 608 139.3 576 139.3C544 139.3 512 144.7 480 146.5C448 148.3 416 146.7 384 144C352 141.3 320 137.7 288 133.2C256 128.7 224 123.3 192 128.7C160 134 128 150 96 150C64 150 32 134 16 126L0 118Z" fill="#69bfb7"></path><path d="M0 320L16 328C32 336 64 352 96 339.3C128 326.7 160 285.3 192 289.8C224 294.3 256 344.7 288 365.3C320 386 352 377 384 369C416 361 448 354 480 349.5C512 345 544 343 576 345.7C608 348.3 640 355.7 672 369.2C704 382.7 736 402.3 768 413.2C800 424 832 426 864 423.3C896 420.7 928 413.3 944 409.7L960 406L960 355L944 347C928 339 896 323 864 317.7C832 312.3 800 317.7 768 308.7C736 299.7 704 276.3 672 262.8C640 249.3 608 245.7 576 243.8C544 242 512 242 480 254.7C448 267.3 416 292.7 384 299C352 305.3 320 292.7 288 272.8C256 253 224 226 192 225C160 224 128 249 96 250.8C64 252.7 32 231.3 16 220.7L0 210Z" fill="#68bbb3"></path><path d="M0 374L16 387.5C32 401 64 428 96 419.8C128 411.7 160 368.3 192 364.7C224 361 256 397 288 415.8C320 434.7 352 436.3 384 431.8C416 427.3 448 416.7 480 414C512 411.3 544 416.7 576 420.3C608 424 640 426 672 436C704 446 736 464 768 470.2C800 476.3 832 470.7 864 469.7C896 468.7 928 472.3 944 474.2L960 476L960 404L944 407.7C928 411.3 896 418.7 864 421.3C832 424 800 422 768 411.2C736 400.3 704 380.7 672 367.2C640 353.7 608 346.3 576 343.7C544 341 512 343 480 347.5C448 352 416 359 384 367C352 375 320 384 288 363.3C256 342.7 224 292.3 192 287.8C160 283.3 128 324.7 96 337.3C64 350 32 334 16 326L0 318Z" fill="#64b0a9"></path><path d="M0 541L16 541C32 541 64 541 96 541C128 541 160 541 192 541C224 541 256 541 288 541C320 541 352 541 384 541C416 541 448 541 480 541C512 541 544 541 576 541C608 541 640 541 672 541C704 541 736 541 768 541C800 541 832 541 864 541C896 541 928 541 944 541L960 541L960 474L944 472.2C928 470.3 896 466.7 864 467.7C832 468.7 800 474.3 768 468.2C736 462 704 444 672 434C640 424 608 422 576 418.3C544 414.7 512 409.3 480 412C448 414.7 416 425.3 384 429.8C352 434.3 320 432.7 288 413.8C256 395 224 359 192 362.7C160 366.3 128 409.7 96 417.8C64 426 32 399 16 385.5L0 372Z" fill="#60a69f"></path></svg>